<svg width="200" height="350" viewBox="0 0 200 350" fill="none" xmlns="http://www.w3.org/2000/svg">
<path d="M87.0884 34.0908C87.0076 34.0101 86.9673 33.8486 86.9673 33.6064C86.9673 33.2633 87.0076 33.0918 87.0884 33.0918C87.3104 33.0918 87.6131 33.0514 87.9966 32.9707C88.4002 32.8698 88.7837 32.7386 89.147 32.5771C89.5103 32.3955 89.7222 32.2038 89.7827 32.002C89.9845 31.6185 90.0955 30.9424 90.1157 29.9736C90.1763 27.693 90.2368 25.6042 90.2974 23.707C90.3579 21.8099 90.4084 20.2256 90.4487 18.9541C90.5093 17.6624 90.5396 16.8249 90.5396 16.4414C90.5396 16.0579 90.5093 15.7754 90.4487 15.5938C90.4084 15.4727 90.2267 15.3617 89.9038 15.2607C89.6011 15.1598 89.2681 15.0791 88.9048 15.0186C88.5617 14.958 88.2993 14.9277 88.1177 14.9277C88.0369 14.9277 87.9966 14.7562 87.9966 14.4131C87.9966 14.1911 88.0369 14.0397 88.1177 13.959L89.6919 14.0498C90.4185 14.1104 91.0441 14.1406 91.5688 14.1406L94.5356 13.959C94.8182 14.8066 95.2521 15.9167 95.8374 17.2891C96.4227 18.6615 97.1089 20.2559 97.896 22.0723C98.7033 23.8887 99.5409 25.8867 100.409 28.0664C100.409 28.1068 100.439 28.127 100.5 28.127C100.56 28.127 100.59 28.0967 100.59 28.0361C101.478 25.8968 102.276 23.9593 102.982 22.2236C103.688 20.4678 104.304 18.9036 104.829 17.5312L105.918 14.0195C106.524 14.0801 107.351 14.1104 108.401 14.1104C108.805 14.1104 109.299 14.1003 109.884 14.0801C110.49 14.0397 111.196 13.9993 112.003 13.959C112.064 14.0397 112.094 14.2012 112.094 14.4434C112.094 14.7865 112.054 14.958 111.973 14.958H111.913C111.368 14.958 110.873 15.1195 110.429 15.4424C110.126 15.6442 109.995 16.1891 110.036 17.0771C110.076 17.9652 110.126 19.4587 110.187 21.5576C110.268 23.6364 110.359 26.3105 110.459 29.5801C110.5 30.7103 110.661 31.6387 110.944 32.3652C111.004 32.4863 111.156 32.6074 111.398 32.7285C111.66 32.8294 111.933 32.9202 112.215 33.001C112.498 33.0615 112.7 33.0918 112.821 33.0918C112.902 33.0918 112.942 33.2734 112.942 33.6367C112.942 33.778 112.922 33.9294 112.881 34.0908L109.158 33.9092C108.451 33.9092 107.725 33.9294 106.978 33.9697C106.231 34.0101 105.616 34.0505 105.131 34.0908C105.051 34.0101 105.01 33.8587 105.01 33.6367C105.01 33.2734 105.051 33.0918 105.131 33.0918C105.353 33.0918 105.676 33.0312 106.1 32.9102C106.524 32.7689 106.806 32.6175 106.948 32.4561C107.15 32.1937 107.25 31.8405 107.25 31.3965V29.7012L106.948 20.498C106.847 19.2467 106.726 18.6211 106.584 18.6211C106.524 18.6211 106.473 18.6816 106.433 18.8027L100.651 32.9102C100.308 33.6771 99.9243 34.0605 99.5005 34.0605C99.4601 34.0605 99.4097 34.0505 99.3491 34.0303C99.3088 34.0303 99.2583 34.0202 99.1978 34L92.4165 17.7129C92.3358 20.2155 92.255 22.597 92.1743 24.8574C92.1138 27.1178 92.033 29.237 91.9321 31.2148C91.9321 31.6589 91.9624 31.9717 92.0229 32.1533C92.1037 32.2946 92.3257 32.446 92.689 32.6074C93.0522 32.7487 93.4256 32.8698 93.8091 32.9707C94.2127 33.0514 94.4953 33.0918 94.6567 33.0918C94.7375 33.0918 94.7778 33.2734 94.7778 33.6367C94.7778 33.778 94.7576 33.9294 94.7173 34.0908L90.9028 33.9092C90.3579 33.9092 89.6414 33.9395 88.7534 34C87.8452 34.0605 87.2902 34.0908 87.0884 34.0908ZM100.015 84.2119C98.7437 84.2119 97.5832 83.9092 96.5337 83.3037C95.5044 82.6781 94.6769 81.8506 94.0513 80.8213C93.4458 79.792 93.1431 78.6517 93.1431 77.4004C93.1431 76.1289 93.4458 74.9886 94.0513 73.9795C94.6567 72.9502 95.4741 72.1328 96.5034 71.5273C97.5529 70.9219 98.7134 70.6191 99.9849 70.6191C101.256 70.6191 102.407 70.9219 103.436 71.5273C104.486 72.1328 105.313 72.9502 105.918 73.9795C106.544 75.0088 106.857 76.1491 106.857 77.4004C106.857 78.6517 106.554 79.792 105.949 80.8213C105.343 81.8506 104.526 82.6781 103.497 83.3037C102.467 83.9092 101.307 84.2119 100.015 84.2119ZM100.318 82.7891C100.964 82.7891 101.509 82.5771 101.953 82.1533C102.397 81.7295 102.74 81.1644 102.982 80.458C103.224 79.7314 103.345 78.9544 103.345 78.127C103.345 77.0371 103.194 76.0381 102.891 75.1299C102.609 74.2015 102.185 73.4548 101.62 72.8896C101.075 72.3245 100.399 72.042 99.5913 72.042C98.9657 72.042 98.4207 72.2539 97.9565 72.6777C97.5125 73.1016 97.1694 73.6667 96.9272 74.373C96.7052 75.0794 96.5942 75.8564 96.5942 76.7041C96.5942 77.7939 96.7355 78.8031 97.0181 79.7314C97.3208 80.6396 97.7547 81.3763 98.3198 81.9414C98.8849 82.5065 99.5509 82.7891 100.318 82.7891ZM99.5762 134.333C99.3945 134.333 99.2734 134.272 99.2129 134.151C98.668 132.92 98.2038 131.891 97.8203 131.063C97.457 130.216 97.1341 129.479 96.8516 128.854C96.5892 128.228 96.3268 127.632 96.0645 127.067C95.8223 126.482 95.5397 125.846 95.2168 125.16C94.8939 124.454 94.5003 123.586 94.0361 122.557C93.7939 121.992 93.138 121.709 92.0684 121.709C91.9876 121.709 91.9473 121.548 91.9473 121.225C91.9473 120.982 91.9876 120.821 92.0684 120.74C92.6335 120.74 93.2288 120.771 93.8545 120.831C94.5003 120.892 95.1361 120.922 95.7617 120.922C96.3672 120.922 96.9827 120.892 97.6084 120.831C98.234 120.771 98.8294 120.74 99.3945 120.74C99.4551 120.821 99.4753 121.003 99.4551 121.285C99.4551 121.568 99.4147 121.709 99.334 121.709C99.1725 121.709 98.9505 121.739 98.668 121.8C98.3854 121.86 98.1331 121.941 97.9111 122.042C97.6891 122.123 97.5781 122.234 97.5781 122.375C97.5781 122.496 97.5983 122.597 97.6387 122.678L100.636 129.641L103.36 123.646C103.582 123.162 103.633 122.789 103.512 122.526C103.209 121.981 102.503 121.709 101.393 121.709C101.332 121.709 101.302 121.568 101.302 121.285C101.302 121.003 101.332 120.821 101.393 120.74C101.978 120.76 102.563 120.801 103.148 120.861C103.734 120.902 104.218 120.922 104.602 120.922C104.965 120.922 105.439 120.902 106.024 120.861C106.63 120.801 107.235 120.76 107.841 120.74C107.901 120.821 107.932 120.982 107.932 121.225C107.932 121.548 107.871 121.709 107.75 121.709C107.467 121.709 107.074 121.81 106.569 122.012C106.065 122.193 105.722 122.476 105.54 122.859L100.484 133.546C100.404 133.707 100.272 133.879 100.091 134.061C99.9092 134.242 99.7376 134.333 99.5762 134.333ZM96.5337 184.091C96.453 184.01 96.4126 183.818 96.4126 183.516C96.4126 183.233 96.453 183.092 96.5337 183.092C96.6951 183.092 96.9071 183.051 97.1694 182.971C97.4318 182.89 97.674 182.789 97.896 182.668C98.1382 182.547 98.2694 182.446 98.2896 182.365C98.3703 182.022 98.4308 181.659 98.4712 181.275C98.5116 180.892 98.5317 180.508 98.5317 180.125V175.251C98.5317 174.302 98.3703 173.657 98.0474 173.313C97.8657 173.091 97.6336 172.94 97.3511 172.859C97.0887 172.779 96.8465 172.728 96.6245 172.708C96.4227 172.688 96.3218 172.658 96.3218 172.617C96.3218 172.012 96.3722 171.709 96.4731 171.709C97.119 171.628 97.8254 171.517 98.5923 171.376C99.3794 171.215 100.086 171.063 100.711 170.922L101.68 170.68C101.821 170.68 101.892 170.882 101.892 171.285C101.892 171.548 101.852 171.931 101.771 172.436C101.71 172.92 101.68 173.404 101.68 173.889V179.641C101.68 180.912 101.751 181.82 101.892 182.365C101.932 182.446 102.064 182.547 102.286 182.668C102.508 182.789 102.75 182.89 103.012 182.971C103.275 183.051 103.456 183.092 103.557 183.092C103.618 183.092 103.648 183.233 103.648 183.516C103.668 183.798 103.658 183.99 103.618 184.091C102.992 184.05 102.356 184.01 101.71 183.97C101.065 183.929 100.53 183.909 100.106 183.909C99.4803 183.909 98.8345 183.929 98.1685 183.97C97.5226 184.01 96.9777 184.05 96.5337 184.091ZM99.8638 167.531C99.3592 167.531 98.9253 167.35 98.562 166.986C98.1987 166.623 98.0171 166.189 98.0171 165.685C98.0171 165.18 98.1987 164.756 98.562 164.413C98.9253 164.05 99.3592 163.868 99.8638 163.868C100.368 163.868 100.792 164.05 101.135 164.413C101.499 164.756 101.68 165.18 101.68 165.685C101.68 166.189 101.499 166.623 101.135 166.986C100.792 167.35 100.368 167.531 99.8638 167.531ZM99.4854 234.303C98.2139 234.303 96.9121 234.02 95.5801 233.455C95.5195 233.213 95.4489 232.87 95.3682 232.426C95.3076 231.982 95.2471 231.538 95.1865 231.094C95.1462 230.63 95.126 230.276 95.126 230.034C95.2673 229.933 95.4085 229.883 95.5498 229.883C95.9938 229.883 96.236 229.964 96.2764 230.125C96.4378 230.973 96.8314 231.659 97.457 232.184C98.1029 232.688 98.7992 232.94 99.5459 232.94C100.111 232.94 100.575 232.799 100.938 232.517C101.302 232.214 101.483 231.77 101.483 231.185C101.483 230.761 101.322 230.377 100.999 230.034C100.676 229.671 100.373 229.419 100.091 229.277L98.0928 228.218C97.1644 227.733 96.4479 227.199 95.9434 226.613C95.4388 226.008 95.1865 225.281 95.1865 224.434C95.1865 223.606 95.4085 222.91 95.8525 222.345C96.3167 221.78 96.9121 221.346 97.6387 221.043C98.3854 220.74 99.1826 220.589 100.03 220.589C101.12 220.589 102.291 220.76 103.542 221.104C103.643 221.548 103.714 222.052 103.754 222.617C103.814 223.182 103.855 223.808 103.875 224.494C103.875 224.656 103.744 224.736 103.481 224.736C103.037 224.736 102.795 224.656 102.755 224.494C102.614 223.788 102.311 223.192 101.847 222.708C101.403 222.203 100.797 221.951 100.03 221.951C99.445 221.951 98.9808 222.082 98.6377 222.345C98.3148 222.607 98.1533 222.98 98.1533 223.465C98.1533 223.99 98.3551 224.434 98.7588 224.797C99.1624 225.16 99.7074 225.513 100.394 225.856C100.918 226.119 101.423 226.401 101.907 226.704C102.412 227.007 102.886 227.34 103.33 227.703C104.117 228.329 104.511 229.156 104.511 230.186C104.511 231.033 104.279 231.77 103.814 232.396C103.37 233.001 102.765 233.475 101.998 233.818C101.251 234.141 100.414 234.303 99.4854 234.303ZM100.605 284.182C99.4349 284.182 98.3551 283.889 97.3662 283.304C96.3975 282.698 95.6204 281.891 95.0352 280.882C94.4499 279.853 94.1572 278.722 94.1572 277.491C94.1572 276.119 94.4297 274.918 94.9746 273.889C95.5195 272.859 96.2562 272.062 97.1846 271.497C98.1331 270.912 99.2129 270.619 100.424 270.619C101.413 270.619 102.26 270.801 102.967 271.164C103.673 271.527 104.248 272.002 104.692 272.587C105.157 273.152 105.49 273.757 105.691 274.403C105.913 275.029 106.024 275.614 106.024 276.159C106.024 276.603 105.944 276.886 105.782 277.007C105.641 277.108 105.338 277.158 104.874 277.158H97.6387C97.4974 277.158 97.4268 277.219 97.4268 277.34C97.4268 278.087 97.5579 278.793 97.8203 279.459C98.0827 280.145 98.5267 280.741 99.1523 281.245C99.7982 281.75 100.565 282.002 101.453 282.002C101.978 282.002 102.412 281.962 102.755 281.881C103.098 281.8 103.431 281.709 103.754 281.608C103.915 281.548 104.117 281.447 104.359 281.306C104.602 281.144 104.824 281.003 105.025 280.882C105.227 280.741 105.328 280.67 105.328 280.67C105.368 280.69 105.419 280.751 105.479 280.852C105.54 280.952 105.57 281.053 105.57 281.154C105.57 281.376 105.51 281.568 105.389 281.729C105.187 282.093 104.844 282.466 104.359 282.85C103.895 283.213 103.34 283.526 102.694 283.788C102.049 284.05 101.352 284.182 100.605 284.182ZM97.6387 275.705H102.543C102.725 275.705 102.815 275.554 102.815 275.251C102.815 274.767 102.704 274.282 102.482 273.798C102.281 273.293 101.978 272.869 101.574 272.526C101.191 272.183 100.737 272.012 100.212 272.012C99.5863 272.012 99.0615 272.224 98.6377 272.647C98.234 273.071 97.9313 273.556 97.7295 274.101C97.5479 274.646 97.457 275.11 97.457 275.493C97.457 275.634 97.5176 275.705 97.6387 275.705ZM94.46 334.121C94.3792 334.04 94.3389 333.849 94.3389 333.546C94.3389 333.243 94.3792 333.092 94.46 333.092C94.6214 333.092 94.8434 333.062 95.126 333.001C95.4287 332.92 95.7012 332.829 95.9434 332.729C96.2057 332.607 96.347 332.507 96.3672 332.426C96.5085 331.861 96.5791 331.124 96.5791 330.216V325.281C96.5791 324.312 96.4176 323.667 96.0947 323.344C95.9131 323.122 95.6911 322.97 95.4287 322.89C95.1663 322.789 94.9242 322.728 94.7021 322.708C94.5003 322.688 94.3994 322.658 94.3994 322.617C94.3994 322.052 94.4499 321.749 94.5508 321.709C95.1361 321.669 95.7718 321.578 96.458 321.437C97.1644 321.275 97.9818 321.104 98.9102 320.922C99.2129 320.861 99.4046 320.821 99.4854 320.801C99.5863 320.76 99.6468 320.74 99.667 320.74C99.7477 320.74 99.8184 320.811 99.8789 320.952C99.9395 321.073 99.9697 321.184 99.9697 321.285C99.8486 322.133 99.7881 322.617 99.7881 322.738C100.151 322.193 100.646 321.709 101.271 321.285C101.897 320.841 102.533 320.619 103.179 320.619C104.289 320.619 105.116 320.952 105.661 321.618C105.661 323.334 105.177 324.191 104.208 324.191C103.865 324.191 103.471 323.99 103.027 323.586C102.583 323.182 102.149 322.98 101.726 322.98C101.302 322.98 100.938 323.132 100.636 323.435C100.333 323.737 100.101 324.111 99.9395 324.555C99.7982 324.999 99.7275 325.453 99.7275 325.917V329.701C99.7275 330.973 99.7982 331.881 99.9395 332.426C99.9798 332.507 100.121 332.607 100.363 332.729C100.605 332.829 100.868 332.92 101.15 333.001C101.433 333.062 101.635 333.092 101.756 333.092C101.816 333.092 101.847 333.243 101.847 333.546C101.867 333.828 101.867 334.02 101.847 334.121C101.746 334.101 101.453 334.071 100.969 334.03C100.505 334.01 100 333.99 99.4551 333.97C98.9303 333.929 98.5065 333.909 98.1836 333.909C97.8607 333.909 97.4268 333.929 96.8818 333.97C96.3369 333.99 95.8223 334.01 95.3379 334.03C94.8737 334.071 94.5811 334.101 94.46 334.121Z" fill="#580F0F"/>
<path d="M1.08838 34.0908C1.00765 34.0101 0.967285 33.8486 0.967285 33.6064C0.967285 33.2633 1.00765 33.0918 1.08838 33.0918C1.31038 33.0918 1.61312 33.0514 1.99658 32.9707C2.40023 32.8698 2.78369 32.7386 3.14697 32.5771C3.51025 32.3955 3.72217 32.2038 3.78271 32.002C3.98454 31.6185 4.09554 30.9424 4.11572 29.9736C4.17627 27.693 4.23682 25.6042 4.29736 23.707C4.35791 21.8099 4.40837 20.2256 4.44873 18.9541C4.50928 17.6624 4.53955 16.8249 4.53955 16.4414C4.53955 16.0579 4.50928 15.7754 4.44873 15.5938C4.40837 15.4727 4.22673 15.3617 3.90381 15.2607C3.60107 15.1598 3.26807 15.0791 2.90479 15.0186C2.56169 14.958 2.29932 14.9277 2.11768 14.9277C2.03695 14.9277 1.99658 14.7562 1.99658 14.4131C1.99658 14.1911 2.03695 14.0397 2.11768 13.959L3.69189 14.0498C4.41846 14.1104 5.04411 14.1406 5.56885 14.1406L8.53564 13.959C8.8182 14.8066 9.25212 15.9167 9.8374 17.2891C10.4227 18.6615 11.1089 20.2559 11.896 22.0723C12.7033 23.8887 13.5409 25.8867 14.4087 28.0664C14.4087 28.1068 14.439 28.127 14.4995 28.127C14.5601 28.127 14.5903 28.0967 14.5903 28.0361C15.4784 25.8968 16.2756 23.9593 16.9819 22.2236C17.6883 20.4678 18.3039 18.9036 18.8286 17.5312L19.9185 14.0195C20.5239 14.0801 21.3514 14.1104 22.4009 14.1104C22.8045 14.1104 23.299 14.1003 23.8843 14.0801C24.4897 14.0397 25.1961 13.9993 26.0034 13.959C26.064 14.0397 26.0942 14.2012 26.0942 14.4434C26.0942 14.7865 26.0539 14.958 25.9731 14.958H25.9126C25.3677 14.958 24.8732 15.1195 24.4292 15.4424C24.1265 15.6442 23.9953 16.1891 24.0356 17.0771C24.076 17.9652 24.1265 19.4587 24.187 21.5576C24.2677 23.6364 24.3586 26.3105 24.4595 29.5801C24.4998 30.7103 24.6613 31.6387 24.9438 32.3652C25.0044 32.4863 25.1558 32.6074 25.3979 32.7285C25.6603 32.8294 25.9328 32.9202 26.2153 33.001C26.4979 33.0615 26.6997 33.0918 26.8208 33.0918C26.9015 33.0918 26.9419 33.2734 26.9419 33.6367C26.9419 33.778 26.9217 33.9294 26.8813 34.0908L23.1577 33.9092C22.4513 33.9092 21.7248 33.9294 20.978 33.9697C20.2313 34.0101 19.6157 34.0505 19.1313 34.0908C19.0506 34.0101 19.0103 33.8587 19.0103 33.6367C19.0103 33.2734 19.0506 33.0918 19.1313 33.0918C19.3534 33.0918 19.6763 33.0312 20.1001 32.9102C20.5239 32.7689 20.8065 32.6175 20.9478 32.4561C21.1496 32.1937 21.2505 31.8405 21.2505 31.3965V29.7012L20.9478 20.498C20.8468 19.2467 20.7257 18.6211 20.5845 18.6211C20.5239 18.6211 20.4735 18.6816 20.4331 18.8027L14.6509 32.9102C14.3078 33.6771 13.9243 34.0605 13.5005 34.0605C13.4601 34.0605 13.4097 34.0505 13.3491 34.0303C13.3088 34.0303 13.2583 34.0202 13.1978 34L6.4165 17.7129C6.33577 20.2155 6.25505 22.597 6.17432 24.8574C6.11377 27.1178 6.03304 29.237 5.93213 31.2148C5.93213 31.6589 5.9624 31.9717 6.02295 32.1533C6.10368 32.2946 6.32568 32.446 6.68896 32.6074C7.05225 32.7487 7.42562 32.8698 7.80908 32.9707C8.21273 33.0514 8.49528 33.0918 8.65674 33.0918C8.73747 33.0918 8.77783 33.2734 8.77783 33.6367C8.77783 33.778 8.75765 33.9294 8.71729 34.0908L4.90283 33.9092C4.35791 33.9092 3.64144 33.9395 2.75342 34C1.84521 34.0605 1.2902 34.0908 1.08838 34.0908ZM14.0151 84.2119C12.7437 84.2119 11.5832 83.9092 10.5337 83.3037C9.50439 82.6781 8.67692 81.8506 8.05127 80.8213C7.4458 79.792 7.14307 78.6517 7.14307 77.4004C7.14307 76.1289 7.4458 74.9886 8.05127 73.9795C8.65674 72.9502 9.47412 72.1328 10.5034 71.5273C11.5529 70.9219 12.7134 70.6191 13.9849 70.6191C15.2563 70.6191 16.4067 70.9219 17.436 71.5273C18.4855 72.1328 19.313 72.9502 19.9185 73.9795C20.5441 75.0088 20.8569 76.1491 20.8569 77.4004C20.8569 78.6517 20.5542 79.792 19.9487 80.8213C19.3433 81.8506 18.5259 82.6781 17.4966 83.3037C16.4673 83.9092 15.3068 84.2119 14.0151 84.2119ZM14.3179 82.7891C14.9637 82.7891 15.5086 82.5771 15.9526 82.1533C16.3966 81.7295 16.7397 81.1644 16.9819 80.458C17.2241 79.7314 17.3452 78.9544 17.3452 78.127C17.3452 77.0371 17.1938 76.0381 16.8911 75.1299C16.6086 74.2015 16.1847 73.4548 15.6196 72.8896C15.0747 72.3245 14.3986 72.042 13.5913 72.042C12.9657 72.042 12.4207 72.2539 11.9565 72.6777C11.5125 73.1016 11.1694 73.6667 10.9272 74.373C10.7052 75.0794 10.5942 75.8564 10.5942 76.7041C10.5942 77.7939 10.7355 78.8031 11.0181 79.7314C11.3208 80.6396 11.7547 81.3763 12.3198 81.9414C12.8849 82.5065 13.5509 82.7891 14.3179 82.7891ZM13.5762 134.333C13.3945 134.333 13.2734 134.272 13.2129 134.151C12.668 132.92 12.2038 131.891 11.8203 131.063C11.457 130.216 11.1341 129.479 10.8516 128.854C10.5892 128.228 10.3268 127.632 10.0645 127.067C9.82227 126.482 9.53971 125.846 9.2168 125.16C8.89388 124.454 8.50033 123.586 8.03613 122.557C7.79395 121.992 7.13802 121.709 6.06836 121.709C5.98763 121.709 5.94727 121.548 5.94727 121.225C5.94727 120.982 5.98763 120.821 6.06836 120.74C6.63346 120.74 7.22884 120.771 7.85449 120.831C8.50033 120.892 9.13607 120.922 9.76172 120.922C10.3672 120.922 10.9827 120.892 11.6084 120.831C12.234 120.771 12.8294 120.74 13.3945 120.74C13.4551 120.821 13.4753 121.003 13.4551 121.285C13.4551 121.568 13.4147 121.709 13.334 121.709C13.1725 121.709 12.9505 121.739 12.668 121.8C12.3854 121.86 12.1331 121.941 11.9111 122.042C11.6891 122.123 11.5781 122.234 11.5781 122.375C11.5781 122.496 11.5983 122.597 11.6387 122.678L14.6357 129.641L17.3604 123.646C17.5824 123.162 17.6328 122.789 17.5117 122.526C17.209 121.981 16.5026 121.709 15.3926 121.709C15.332 121.709 15.3018 121.568 15.3018 121.285C15.3018 121.003 15.332 120.821 15.3926 120.74C15.9779 120.76 16.5632 120.801 17.1484 120.861C17.7337 120.902 18.2181 120.922 18.6016 120.922C18.9648 120.922 19.4391 120.902 20.0244 120.861C20.6299 120.801 21.2354 120.76 21.8408 120.74C21.9014 120.821 21.9316 120.982 21.9316 121.225C21.9316 121.548 21.8711 121.709 21.75 121.709C21.4674 121.709 21.0739 121.81 20.5693 122.012C20.0648 122.193 19.7217 122.476 19.54 122.859L14.4844 133.546C14.4036 133.707 14.2725 133.879 14.0908 134.061C13.9092 134.242 13.7376 134.333 13.5762 134.333ZM10.5337 184.091C10.453 184.01 10.4126 183.818 10.4126 183.516C10.4126 183.233 10.453 183.092 10.5337 183.092C10.6951 183.092 10.9071 183.051 11.1694 182.971C11.4318 182.89 11.674 182.789 11.896 182.668C12.1382 182.547 12.2694 182.446 12.2896 182.365C12.3703 182.022 12.4308 181.659 12.4712 181.275C12.5116 180.892 12.5317 180.508 12.5317 180.125V175.251C12.5317 174.302 12.3703 173.657 12.0474 173.313C11.8657 173.091 11.6336 172.94 11.3511 172.859C11.0887 172.779 10.8465 172.728 10.6245 172.708C10.4227 172.688 10.3218 172.658 10.3218 172.617C10.3218 172.012 10.3722 171.709 10.4731 171.709C11.119 171.628 11.8254 171.517 12.5923 171.376C13.3794 171.215 14.0858 171.063 14.7114 170.922L15.6802 170.68C15.8215 170.68 15.8921 170.882 15.8921 171.285C15.8921 171.548 15.8517 171.931 15.771 172.436C15.7104 172.92 15.6802 173.404 15.6802 173.889V179.641C15.6802 180.912 15.7508 181.82 15.8921 182.365C15.9325 182.446 16.0636 182.547 16.2856 182.668C16.5076 182.789 16.7498 182.89 17.0122 182.971C17.2746 183.051 17.4562 183.092 17.5571 183.092C17.6177 183.092 17.6479 183.233 17.6479 183.516C17.6681 183.798 17.658 183.99 17.6177 184.091C16.992 184.05 16.3563 184.01 15.7104 183.97C15.0646 183.929 14.5298 183.909 14.106 183.909C13.4803 183.909 12.8345 183.929 12.1685 183.97C11.5226 184.01 10.9777 184.05 10.5337 184.091ZM13.8638 167.531C13.3592 167.531 12.9253 167.35 12.562 166.986C12.1987 166.623 12.0171 166.189 12.0171 165.685C12.0171 165.18 12.1987 164.756 12.562 164.413C12.9253 164.05 13.3592 163.868 13.8638 163.868C14.3683 163.868 14.7922 164.05 15.1353 164.413C15.4985 164.756 15.6802 165.18 15.6802 165.685C15.6802 166.189 15.4985 166.623 15.1353 166.986C14.7922 167.35 14.3683 167.531 13.8638 167.531ZM13.4854 234.303C12.2139 234.303 10.9121 234.02 9.58008 233.455C9.51953 233.213 9.44889 232.87 9.36816 232.426C9.30762 231.982 9.24707 231.538 9.18652 231.094C9.14616 230.63 9.12598 230.276 9.12598 230.034C9.26725 229.933 9.40853 229.883 9.5498 229.883C9.99382 229.883 10.236 229.964 10.2764 230.125C10.4378 230.973 10.8314 231.659 11.457 232.184C12.1029 232.688 12.7992 232.94 13.5459 232.94C14.111 232.94 14.5752 232.799 14.9385 232.517C15.3018 232.214 15.4834 231.77 15.4834 231.185C15.4834 230.761 15.3219 230.377 14.999 230.034C14.6761 229.671 14.3734 229.419 14.0908 229.277L12.0928 228.218C11.1644 227.733 10.4479 227.199 9.94336 226.613C9.4388 226.008 9.18652 225.281 9.18652 224.434C9.18652 223.606 9.40853 222.91 9.85254 222.345C10.3167 221.78 10.9121 221.346 11.6387 221.043C12.3854 220.74 13.1826 220.589 14.0303 220.589C15.1201 220.589 16.2907 220.76 17.542 221.104C17.6429 221.548 17.7135 222.052 17.7539 222.617C17.8145 223.182 17.8548 223.808 17.875 224.494C17.875 224.656 17.7438 224.736 17.4814 224.736C17.0374 224.736 16.7952 224.656 16.7549 224.494C16.6136 223.788 16.3109 223.192 15.8467 222.708C15.4027 222.203 14.7972 221.951 14.0303 221.951C13.445 221.951 12.9808 222.082 12.6377 222.345C12.3148 222.607 12.1533 222.98 12.1533 223.465C12.1533 223.99 12.3551 224.434 12.7588 224.797C13.1624 225.16 13.7074 225.513 14.3936 225.856C14.9183 226.119 15.4229 226.401 15.9072 226.704C16.4118 227.007 16.8861 227.34 17.3301 227.703C18.1172 228.329 18.5107 229.156 18.5107 230.186C18.5107 231.033 18.2786 231.77 17.8145 232.396C17.3704 233.001 16.765 233.475 15.998 233.818C15.2513 234.141 14.4137 234.303 13.4854 234.303ZM14.6055 284.182C13.4349 284.182 12.3551 283.889 11.3662 283.304C10.3975 282.698 9.62044 281.891 9.03516 280.882C8.44987 279.853 8.15723 278.722 8.15723 277.491C8.15723 276.119 8.42969 274.918 8.97461 273.889C9.51953 272.859 10.2562 272.062 11.1846 271.497C12.1331 270.912 13.2129 270.619 14.4238 270.619C15.4128 270.619 16.2604 270.801 16.9668 271.164C17.6732 271.527 18.2484 272.002 18.6924 272.587C19.1566 273.152 19.4896 273.757 19.6914 274.403C19.9134 275.029 20.0244 275.614 20.0244 276.159C20.0244 276.603 19.9437 276.886 19.7822 277.007C19.641 277.108 19.3382 277.158 18.874 277.158H11.6387C11.4974 277.158 11.4268 277.219 11.4268 277.34C11.4268 278.087 11.5579 278.793 11.8203 279.459C12.0827 280.145 12.5267 280.741 13.1523 281.245C13.7982 281.75 14.5651 282.002 15.4531 282.002C15.9779 282.002 16.4118 281.962 16.7549 281.881C17.098 281.8 17.431 281.709 17.7539 281.608C17.9154 281.548 18.1172 281.447 18.3594 281.306C18.6016 281.144 18.8236 281.003 19.0254 280.882C19.2272 280.741 19.3281 280.67 19.3281 280.67C19.3685 280.69 19.4189 280.751 19.4795 280.852C19.54 280.952 19.5703 281.053 19.5703 281.154C19.5703 281.376 19.5098 281.568 19.3887 281.729C19.1868 282.093 18.8438 282.466 18.3594 282.85C17.8952 283.213 17.3402 283.526 16.6943 283.788C16.0485 284.05 15.3522 284.182 14.6055 284.182ZM11.6387 275.705H16.543C16.7246 275.705 16.8154 275.554 16.8154 275.251C16.8154 274.767 16.7044 274.282 16.4824 273.798C16.2806 273.293 15.9779 272.869 15.5742 272.526C15.1908 272.183 14.7367 272.012 14.2119 272.012C13.5863 272.012 13.0615 272.224 12.6377 272.647C12.234 273.071 11.9313 273.556 11.7295 274.101C11.5479 274.646 11.457 275.11 11.457 275.493C11.457 275.634 11.5176 275.705 11.6387 275.705ZM8.45996 334.121C8.37923 334.04 8.33887 333.849 8.33887 333.546C8.33887 333.243 8.37923 333.092 8.45996 333.092C8.62142 333.092 8.84342 333.062 9.12598 333.001C9.42871 332.92 9.70117 332.829 9.94336 332.729C10.2057 332.607 10.347 332.507 10.3672 332.426C10.5085 331.861 10.5791 331.124 10.5791 330.216V325.281C10.5791 324.312 10.4176 323.667 10.0947 323.344C9.91309 323.122 9.69108 322.97 9.42871 322.89C9.16634 322.789 8.92415 322.728 8.70215 322.708C8.50033 322.688 8.39941 322.658 8.39941 322.617C8.39941 322.052 8.44987 321.749 8.55078 321.709C9.13607 321.669 9.77181 321.578 10.458 321.437C11.1644 321.275 11.9818 321.104 12.9102 320.922C13.2129 320.861 13.4046 320.821 13.4854 320.801C13.5863 320.76 13.6468 320.74 13.667 320.74C13.7477 320.74 13.8184 320.811 13.8789 320.952C13.9395 321.073 13.9697 321.184 13.9697 321.285C13.8486 322.133 13.7881 322.617 13.7881 322.738C14.1514 322.193 14.6458 321.709 15.2715 321.285C15.8971 320.841 16.5329 320.619 17.1787 320.619C18.2887 320.619 19.1162 320.952 19.6611 321.618C19.6611 323.334 19.1768 324.191 18.208 324.191C17.8649 324.191 17.4714 323.99 17.0273 323.586C16.5833 323.182 16.1494 322.98 15.7256 322.98C15.3018 322.98 14.9385 323.132 14.6357 323.435C14.333 323.737 14.1009 324.111 13.9395 324.555C13.7982 324.999 13.7275 325.453 13.7275 325.917V329.701C13.7275 330.973 13.7982 331.881 13.9395 332.426C13.9798 332.507 14.1211 332.607 14.3633 332.729C14.6055 332.829 14.8678 332.92 15.1504 333.001C15.4329 333.062 15.6348 333.092 15.7559 333.092C15.8164 333.092 15.8467 333.243 15.8467 333.546C15.8669 333.828 15.8669 334.02 15.8467 334.121C15.7458 334.101 15.4531 334.071 14.9688 334.03C14.5046 334.01 14 333.99 13.4551 333.97C12.9303 333.929 12.5065 333.909 12.1836 333.909C11.8607 333.909 11.4268 333.929 10.8818 333.97C10.3369 333.99 9.82227 334.01 9.33789 334.03C8.8737 334.071 8.58105 334.101 8.45996 334.121Z" fill="#580F0F"/>
<path d="M173.088 34.0908C173.008 34.0101 172.967 33.8486 172.967 33.6064C172.967 33.2633 173.008 33.0918 173.088 33.0918C173.31 33.0918 173.613 33.0514 173.997 32.9707C174.4 32.8698 174.784 32.7386 175.147 32.5771C175.51 32.3955 175.722 32.2038 175.783 32.002C175.985 31.6185 176.096 30.9424 176.116 29.9736C176.176 27.693 176.237 25.6042 176.297 23.707C176.358 21.8099 176.408 20.2256 176.449 18.9541C176.509 17.6624 176.54 16.8249 176.54 16.4414C176.54 16.0579 176.509 15.7754 176.449 15.5938C176.408 15.4727 176.227 15.3617 175.904 15.2607C175.601 15.1598 175.268 15.0791 174.905 15.0186C174.562 14.958 174.299 14.9277 174.118 14.9277C174.037 14.9277 173.997 14.7562 173.997 14.4131C173.997 14.1911 174.037 14.0397 174.118 13.959L175.692 14.0498C176.418 14.1104 177.044 14.1406 177.569 14.1406L180.536 13.959C180.818 14.8066 181.252 15.9167 181.837 17.2891C182.423 18.6615 183.109 20.2559 183.896 22.0723C184.703 23.8887 185.541 25.8867 186.409 28.0664C186.409 28.1068 186.439 28.127 186.5 28.127C186.56 28.127 186.59 28.0967 186.59 28.0361C187.478 25.8968 188.276 23.9593 188.982 22.2236C189.688 20.4678 190.304 18.9036 190.829 17.5312L191.918 14.0195C192.524 14.0801 193.351 14.1104 194.401 14.1104C194.805 14.1104 195.299 14.1003 195.884 14.0801C196.49 14.0397 197.196 13.9993 198.003 13.959C198.064 14.0397 198.094 14.2012 198.094 14.4434C198.094 14.7865 198.054 14.958 197.973 14.958H197.913C197.368 14.958 196.873 15.1195 196.429 15.4424C196.126 15.6442 195.995 16.1891 196.036 17.0771C196.076 17.9652 196.126 19.4587 196.187 21.5576C196.268 23.6364 196.359 26.3105 196.459 29.5801C196.5 30.7103 196.661 31.6387 196.944 32.3652C197.004 32.4863 197.156 32.6074 197.398 32.7285C197.66 32.8294 197.933 32.9202 198.215 33.001C198.498 33.0615 198.7 33.0918 198.821 33.0918C198.902 33.0918 198.942 33.2734 198.942 33.6367C198.942 33.778 198.922 33.9294 198.881 34.0908L195.158 33.9092C194.451 33.9092 193.725 33.9294 192.978 33.9697C192.231 34.0101 191.616 34.0505 191.131 34.0908C191.051 34.0101 191.01 33.8587 191.01 33.6367C191.01 33.2734 191.051 33.0918 191.131 33.0918C191.353 33.0918 191.676 33.0312 192.1 32.9102C192.524 32.7689 192.806 32.6175 192.948 32.4561C193.15 32.1937 193.25 31.8405 193.25 31.3965V29.7012L192.948 20.498C192.847 19.2467 192.726 18.6211 192.584 18.6211C192.524 18.6211 192.473 18.6816 192.433 18.8027L186.651 32.9102C186.308 33.6771 185.924 34.0605 185.5 34.0605C185.46 34.0605 185.41 34.0505 185.349 34.0303C185.309 34.0303 185.258 34.0202 185.198 34L178.417 17.7129C178.336 20.2155 178.255 22.597 178.174 24.8574C178.114 27.1178 178.033 29.237 177.932 31.2148C177.932 31.6589 177.962 31.9717 178.023 32.1533C178.104 32.2946 178.326 32.446 178.689 32.6074C179.052 32.7487 179.426 32.8698 179.809 32.9707C180.213 33.0514 180.495 33.0918 180.657 33.0918C180.737 33.0918 180.778 33.2734 180.778 33.6367C180.778 33.778 180.758 33.9294 180.717 34.0908L176.903 33.9092C176.358 33.9092 175.641 33.9395 174.753 34C173.845 34.0605 173.29 34.0908 173.088 34.0908ZM186.015 84.2119C184.744 84.2119 183.583 83.9092 182.534 83.3037C181.504 82.6781 180.677 81.8506 180.051 80.8213C179.446 79.792 179.143 78.6517 179.143 77.4004C179.143 76.1289 179.446 74.9886 180.051 73.9795C180.657 72.9502 181.474 72.1328 182.503 71.5273C183.553 70.9219 184.713 70.6191 185.985 70.6191C187.256 70.6191 188.407 70.9219 189.436 71.5273C190.486 72.1328 191.313 72.9502 191.918 73.9795C192.544 75.0088 192.857 76.1491 192.857 77.4004C192.857 78.6517 192.554 79.792 191.949 80.8213C191.343 81.8506 190.526 82.6781 189.497 83.3037C188.467 83.9092 187.307 84.2119 186.015 84.2119ZM186.318 82.7891C186.964 82.7891 187.509 82.5771 187.953 82.1533C188.397 81.7295 188.74 81.1644 188.982 80.458C189.224 79.7314 189.345 78.9544 189.345 78.127C189.345 77.0371 189.194 76.0381 188.891 75.1299C188.609 74.2015 188.185 73.4548 187.62 72.8896C187.075 72.3245 186.399 72.042 185.591 72.042C184.966 72.042 184.421 72.2539 183.957 72.6777C183.513 73.1016 183.169 73.6667 182.927 74.373C182.705 75.0794 182.594 75.8564 182.594 76.7041C182.594 77.7939 182.736 78.8031 183.018 79.7314C183.321 80.6396 183.755 81.3763 184.32 81.9414C184.885 82.5065 185.551 82.7891 186.318 82.7891ZM185.576 134.333C185.395 134.333 185.273 134.272 185.213 134.151C184.668 132.92 184.204 131.891 183.82 131.063C183.457 130.216 183.134 129.479 182.852 128.854C182.589 128.228 182.327 127.632 182.064 127.067C181.822 126.482 181.54 125.846 181.217 125.16C180.894 124.454 180.5 123.586 180.036 122.557C179.794 121.992 179.138 121.709 178.068 121.709C177.988 121.709 177.947 121.548 177.947 121.225C177.947 120.982 177.988 120.821 178.068 120.74C178.633 120.74 179.229 120.771 179.854 120.831C180.5 120.892 181.136 120.922 181.762 120.922C182.367 120.922 182.983 120.892 183.608 120.831C184.234 120.771 184.829 120.74 185.395 120.74C185.455 120.821 185.475 121.003 185.455 121.285C185.455 121.568 185.415 121.709 185.334 121.709C185.173 121.709 184.951 121.739 184.668 121.8C184.385 121.86 184.133 121.941 183.911 122.042C183.689 122.123 183.578 122.234 183.578 122.375C183.578 122.496 183.598 122.597 183.639 122.678L186.636 129.641L189.36 123.646C189.582 123.162 189.633 122.789 189.512 122.526C189.209 121.981 188.503 121.709 187.393 121.709C187.332 121.709 187.302 121.568 187.302 121.285C187.302 121.003 187.332 120.821 187.393 120.74C187.978 120.76 188.563 120.801 189.148 120.861C189.734 120.902 190.218 120.922 190.602 120.922C190.965 120.922 191.439 120.902 192.024 120.861C192.63 120.801 193.235 120.76 193.841 120.74C193.901 120.821 193.932 120.982 193.932 121.225C193.932 121.548 193.871 121.709 193.75 121.709C193.467 121.709 193.074 121.81 192.569 122.012C192.065 122.193 191.722 122.476 191.54 122.859L186.484 133.546C186.404 133.707 186.272 133.879 186.091 134.061C185.909 134.242 185.738 134.333 185.576 134.333ZM182.534 184.091C182.453 184.01 182.413 183.818 182.413 183.516C182.413 183.233 182.453 183.092 182.534 183.092C182.695 183.092 182.907 183.051 183.169 182.971C183.432 182.89 183.674 182.789 183.896 182.668C184.138 182.547 184.269 182.446 184.29 182.365C184.37 182.022 184.431 181.659 184.471 181.275C184.512 180.892 184.532 180.508 184.532 180.125V175.251C184.532 174.302 184.37 173.657 184.047 173.313C183.866 173.091 183.634 172.94 183.351 172.859C183.089 172.779 182.847 172.728 182.625 172.708C182.423 172.688 182.322 172.658 182.322 172.617C182.322 172.012 182.372 171.709 182.473 171.709C183.119 171.628 183.825 171.517 184.592 171.376C185.379 171.215 186.086 171.063 186.711 170.922L187.68 170.68C187.821 170.68 187.892 170.882 187.892 171.285C187.892 171.548 187.852 171.931 187.771 172.436C187.71 172.92 187.68 173.404 187.68 173.889V179.641C187.68 180.912 187.751 181.82 187.892 182.365C187.932 182.446 188.064 182.547 188.286 182.668C188.508 182.789 188.75 182.89 189.012 182.971C189.275 183.051 189.456 183.092 189.557 183.092C189.618 183.092 189.648 183.233 189.648 183.516C189.668 183.798 189.658 183.99 189.618 184.091C188.992 184.05 188.356 184.01 187.71 183.97C187.065 183.929 186.53 183.909 186.106 183.909C185.48 183.909 184.834 183.929 184.168 183.97C183.523 184.01 182.978 184.05 182.534 184.091ZM185.864 167.531C185.359 167.531 184.925 167.35 184.562 166.986C184.199 166.623 184.017 166.189 184.017 165.685C184.017 165.18 184.199 164.756 184.562 164.413C184.925 164.05 185.359 163.868 185.864 163.868C186.368 163.868 186.792 164.05 187.135 164.413C187.499 164.756 187.68 165.18 187.68 165.685C187.68 166.189 187.499 166.623 187.135 166.986C186.792 167.35 186.368 167.531 185.864 167.531ZM185.485 234.303C184.214 234.303 182.912 234.02 181.58 233.455C181.52 233.213 181.449 232.87 181.368 232.426C181.308 231.982 181.247 231.538 181.187 231.094C181.146 230.63 181.126 230.276 181.126 230.034C181.267 229.933 181.409 229.883 181.55 229.883C181.994 229.883 182.236 229.964 182.276 230.125C182.438 230.973 182.831 231.659 183.457 232.184C184.103 232.688 184.799 232.94 185.546 232.94C186.111 232.94 186.575 232.799 186.938 232.517C187.302 232.214 187.483 231.77 187.483 231.185C187.483 230.761 187.322 230.377 186.999 230.034C186.676 229.671 186.373 229.419 186.091 229.277L184.093 228.218C183.164 227.733 182.448 227.199 181.943 226.613C181.439 226.008 181.187 225.281 181.187 224.434C181.187 223.606 181.409 222.91 181.853 222.345C182.317 221.78 182.912 221.346 183.639 221.043C184.385 220.74 185.183 220.589 186.03 220.589C187.12 220.589 188.291 220.76 189.542 221.104C189.643 221.548 189.714 222.052 189.754 222.617C189.814 223.182 189.855 223.808 189.875 224.494C189.875 224.656 189.744 224.736 189.481 224.736C189.037 224.736 188.795 224.656 188.755 224.494C188.614 223.788 188.311 223.192 187.847 222.708C187.403 222.203 186.797 221.951 186.03 221.951C185.445 221.951 184.981 222.082 184.638 222.345C184.315 222.607 184.153 222.98 184.153 223.465C184.153 223.99 184.355 224.434 184.759 224.797C185.162 225.16 185.707 225.513 186.394 225.856C186.918 226.119 187.423 226.401 187.907 226.704C188.412 227.007 188.886 227.34 189.33 227.703C190.117 228.329 190.511 229.156 190.511 230.186C190.511 231.033 190.279 231.77 189.814 232.396C189.37 233.001 188.765 233.475 187.998 233.818C187.251 234.141 186.414 234.303 185.485 234.303ZM186.605 284.182C185.435 284.182 184.355 283.889 183.366 283.304C182.397 282.698 181.62 281.891 181.035 280.882C180.45 279.853 180.157 278.722 180.157 277.491C180.157 276.119 180.43 274.918 180.975 273.889C181.52 272.859 182.256 272.062 183.185 271.497C184.133 270.912 185.213 270.619 186.424 270.619C187.413 270.619 188.26 270.801 188.967 271.164C189.673 271.527 190.248 272.002 190.692 272.587C191.157 273.152 191.49 273.757 191.691 274.403C191.913 275.029 192.024 275.614 192.024 276.159C192.024 276.603 191.944 276.886 191.782 277.007C191.641 277.108 191.338 277.158 190.874 277.158H183.639C183.497 277.158 183.427 277.219 183.427 277.34C183.427 278.087 183.558 278.793 183.82 279.459C184.083 280.145 184.527 280.741 185.152 281.245C185.798 281.75 186.565 282.002 187.453 282.002C187.978 282.002 188.412 281.962 188.755 281.881C189.098 281.8 189.431 281.709 189.754 281.608C189.915 281.548 190.117 281.447 190.359 281.306C190.602 281.144 190.824 281.003 191.025 280.882C191.227 280.741 191.328 280.67 191.328 280.67C191.368 280.69 191.419 280.751 191.479 280.852C191.54 280.952 191.57 281.053 191.57 281.154C191.57 281.376 191.51 281.568 191.389 281.729C191.187 282.093 190.844 282.466 190.359 282.85C189.895 283.213 189.34 283.526 188.694 283.788C188.049 284.05 187.352 284.182 186.605 284.182ZM183.639 275.705H188.543C188.725 275.705 188.815 275.554 188.815 275.251C188.815 274.767 188.704 274.282 188.482 273.798C188.281 273.293 187.978 272.869 187.574 272.526C187.191 272.183 186.737 272.012 186.212 272.012C185.586 272.012 185.062 272.224 184.638 272.647C184.234 273.071 183.931 273.556 183.729 274.101C183.548 274.646 183.457 275.11 183.457 275.493C183.457 275.634 183.518 275.705 183.639 275.705ZM180.46 334.121C180.379 334.04 180.339 333.849 180.339 333.546C180.339 333.243 180.379 333.092 180.46 333.092C180.621 333.092 180.843 333.062 181.126 333.001C181.429 332.92 181.701 332.829 181.943 332.729C182.206 332.607 182.347 332.507 182.367 332.426C182.508 331.861 182.579 331.124 182.579 330.216V325.281C182.579 324.312 182.418 323.667 182.095 323.344C181.913 323.122 181.691 322.97 181.429 322.89C181.166 322.789 180.924 322.728 180.702 322.708C180.5 322.688 180.399 322.658 180.399 322.617C180.399 322.052 180.45 321.749 180.551 321.709C181.136 321.669 181.772 321.578 182.458 321.437C183.164 321.275 183.982 321.104 184.91 320.922C185.213 320.861 185.405 320.821 185.485 320.801C185.586 320.76 185.647 320.74 185.667 320.74C185.748 320.74 185.818 320.811 185.879 320.952C185.939 321.073 185.97 321.184 185.97 321.285C185.849 322.133 185.788 322.617 185.788 322.738C186.151 322.193 186.646 321.709 187.271 321.285C187.897 320.841 188.533 320.619 189.179 320.619C190.289 320.619 191.116 320.952 191.661 321.618C191.661 323.334 191.177 324.191 190.208 324.191C189.865 324.191 189.471 323.99 189.027 323.586C188.583 323.182 188.149 322.98 187.726 322.98C187.302 322.98 186.938 323.132 186.636 323.435C186.333 323.737 186.101 324.111 185.939 324.555C185.798 324.999 185.728 325.453 185.728 325.917V329.701C185.728 330.973 185.798 331.881 185.939 332.426C185.98 332.507 186.121 332.607 186.363 332.729C186.605 332.829 186.868 332.92 187.15 333.001C187.433 333.062 187.635 333.092 187.756 333.092C187.816 333.092 187.847 333.243 187.847 333.546C187.867 333.828 187.867 334.02 187.847 334.121C187.746 334.101 187.453 334.071 186.969 334.03C186.505 334.01 186 333.99 185.455 333.97C184.93 333.929 184.507 333.909 184.184 333.909C183.861 333.909 183.427 333.929 182.882 333.97C182.337 333.99 181.822 334.01 181.338 334.03C180.874 334.071 180.581 334.101 180.46 334.121Z" fill="#580F0F"/>
</svg>
