<svg width="25" height="25" viewBox="0 0 25 25" fill="none" xmlns="http://www.w3.org/2000/svg">
<path d="M12.148 19.1C11.8946 19.1 11.668 19.0067 11.468 18.82C11.268 18.62 11.168 18.3133 11.168 17.9C11.168 17.6067 11.208 17.2 11.288 16.68C11.368 16.1467 11.4746 15.5667 11.608 14.94C11.7413 14.3133 11.8813 13.6933 12.028 13.08C12.188 12.4533 12.348 11.8933 12.508 11.4C12.668 10.9067 12.808 10.54 12.928 10.3C13.0346 10.1133 13.1346 9.99333 13.228 9.94C13.3346 9.88667 13.4346 9.86 13.528 9.86C13.7146 9.86 13.8746 9.92 14.008 10.04C14.1546 10.16 14.228 10.3933 14.228 10.74C14.228 10.94 14.188 11.2733 14.108 11.74C14.0413 12.1933 13.948 12.7267 13.828 13.34C13.7213 13.94 13.6013 14.56 13.468 15.2C13.348 15.8267 13.228 16.4267 13.108 17C12.988 17.5733 12.8946 18.0533 12.828 18.44C12.7746 18.6533 12.6813 18.82 12.548 18.94C12.428 19.0467 12.2946 19.1 12.148 19.1ZM14.108 8.04C13.8013 8.04 13.508 7.94667 13.228 7.76C12.9613 7.57333 12.828 7.27333 12.828 6.86C12.828 6.51333 12.908 6.23333 13.068 6.02C13.2413 5.80667 13.4413 5.65333 13.668 5.56C13.908 5.45333 14.1146 5.4 14.288 5.4C14.4613 5.4 14.6546 5.44 14.868 5.52C15.0946 5.58667 15.288 5.72 15.448 5.92C15.608 6.10667 15.688 6.38667 15.688 6.76C15.688 7.01333 15.6013 7.24 15.428 7.44C15.2546 7.62667 15.0413 7.77333 14.788 7.88C14.548 7.98667 14.3213 8.04 14.108 8.04Z" fill="#580F0F"/>
<circle cx="12.5" cy="12.5" r="12" stroke="#580F0F"/>
</svg>
