<svg width="242" height="116" viewBox="0 0 242 116" fill="none" xmlns="http://www.w3.org/2000/svg">
<path d="M142.069 108.05C140.269 108.05 139.069 107.6 138.469 106.7C136.669 104.1 135.769 100.95 135.769 97.25C135.769 88.65 140.369 76.3 149.569 60.2C155.469 50.1 164.569 36.5 176.869 19.4C171.669 23.7 166.019 28.65 159.919 34.25C153.819 39.85 147.269 46.05 140.269 52.85C131.169 61.75 123.719 69.6 117.919 76.4C112.219 83.1 108.119 88.65 105.619 93.05C103.019 97.75 99.8693 100.1 96.1693 100.1C94.4693 100.1 93.6193 99.5 93.6193 98.3C93.6193 97.9 93.7693 97.5 94.0693 97.1C95.7693 94.4 97.9693 90.85 100.669 86.45C103.369 81.95 106.569 76.6 110.269 70.4C121.069 51.6 128.819 36.65 133.519 25.55C135.219 21.35 136.069 18.3 136.069 16.4C136.069 14.8 135.519 14 134.419 14C132.919 14 130.569 15.35 127.369 18.05C116.269 27.35 103.819 40.3 90.0193 56.9C84.2193 63.8 79.1193 70.2 74.7193 76.1C70.4193 81.9 66.7693 87.15 63.7693 91.85C61.3693 95.55 60.1693 98.2 60.1693 99.8C60.1693 100.4 60.3693 100.8 60.7693 101C61.2693 101.3 61.5193 101.45 61.5193 101.45C61.5193 101.55 60.6193 102.3 58.8193 103.7C57.2193 104.5 55.4193 104.9 53.4193 104.9C49.3193 104.9 47.5693 103.95 48.1693 102.05C49.5693 97.55 54.2193 89.4 62.1193 77.6C72.4193 62.3 79.1193 51.85 82.2193 46.25C88.9193 34.15 92.2693 24.5 92.2693 17.3C92.2693 12.3 90.9693 8.75 88.3693 6.65C85.7693 4.54999 81.8193 3.49999 76.5193 3.49999C64.8193 3.49999 52.7193 8.54999 40.2193 18.65C34.8193 23.05 29.7693 28.05 25.0693 33.65C20.3693 39.15 16.5693 44.9 13.6693 50.9C10.7693 56.9 9.31934 62.8 9.31934 68.6C9.31934 79 14.2193 84.2 24.0193 84.2C35.5193 84.2 44.4193 80.05 50.7193 71.75C53.1193 68.45 54.3193 65.35 54.3193 62.45C54.3193 60.75 53.8193 59.6 52.8193 59C52.7193 58.9 52.6693 58.75 52.6693 58.55C52.6693 58.15 52.9693 57.95 53.5693 57.95C56.1693 57.95 57.4693 59.65 57.4693 63.05C57.4693 65.15 56.5693 67.8 54.7693 71C52.4693 75 49.0193 78.4 44.4193 81.2C38.6193 84.8 32.2193 86.6 25.2193 86.6C18.4193 86.6 12.9693 84.45 8.86934 80.15C4.76934 75.85 2.71934 70.2 2.71934 63.2C2.71934 47.4 13.0193 31.25 33.6193 14.75C37.4193 11.75 41.9193 9.2 47.1193 7.1C52.4193 4.9 57.8693 3.24999 63.4693 2.14999C69.0693 0.949995 74.2193 0.349997 78.9193 0.349997C85.7193 0.349997 90.8693 1.5 94.3693 3.8C97.9693 6 99.7693 9.9 99.7693 15.5C99.7693 22.5 96.9193 31.95 91.2193 43.85C89.4193 47.55 85.3693 54.3 79.0693 64.1L90.6193 49.4C93.5193 45.6 97.4193 41.1 102.319 35.9C107.219 30.7 113.019 24.8 119.719 18.2C122.619 15.4 125.919 13 129.619 11C133.319 9 136.469 8 139.069 8C142.669 8 144.469 9.9 144.469 13.7C144.469 17 143.119 21.5 140.419 27.2C136.819 34.8 132.319 43.65 126.919 53.75C125.219 56.85 124.069 59.5 123.469 61.7C122.869 63.9 122.469 65.15 122.269 65.45C122.669 64.95 123.619 63.8 125.119 62C126.719 60.1 128.919 57.55 131.719 54.35C135.119 50.55 139.169 46.4 143.869 41.9C148.569 37.3 153.969 32.4 160.069 27.2L184.069 7.4C185.969 5.8 187.669 5 189.169 5C190.569 5 191.569 5.85 192.169 7.54999C192.869 9.15 193.569 11.25 194.269 13.85C194.769 15.55 192.369 19.1 187.069 24.5C174.569 37.3 163.769 51.6 154.669 67.4C146.369 82 142.219 92.55 142.219 99.05C142.219 101.95 143.169 103.4 145.069 103.4C146.269 103.4 149.269 102.35 154.069 100.25C158.269 98.35 161.019 97.25 162.319 96.95C162.819 97.15 163.069 97.4 163.069 97.7C163.069 99.2 160.419 101.3 155.119 104C149.919 106.7 145.569 108.05 142.069 108.05Z" fill="#580F0F"/>
<path d="M160.835 115.072C160.235 115.072 159.767 114.796 159.431 114.244C159.095 113.668 158.927 113.116 158.927 112.588C158.927 111.148 159.971 109.132 162.059 106.54C164.171 103.924 165.875 102.616 167.171 102.616C168.395 102.616 169.007 103.264 169.007 104.56C169.007 104.752 168.983 104.956 168.935 105.172C168.911 105.388 168.875 105.616 168.827 105.856C168.875 105.928 168.995 105.964 169.187 105.964C169.835 105.964 170.603 105.736 171.491 105.28C171.467 105.688 170.519 106.276 168.647 107.044C168.911 107.836 168.119 109.348 166.271 111.58C164.375 113.908 162.755 115.072 161.411 115.072H160.835ZM161.483 113.992C162.515 113.992 163.835 113.044 165.443 111.148C167.003 109.3 167.783 107.968 167.783 107.152C167.399 106.936 166.919 106.384 166.343 105.496C165.527 105.496 164.351 106.48 162.815 108.448C161.303 110.368 160.571 111.844 160.619 112.876C160.643 113.62 160.931 113.992 161.483 113.992ZM173.6 115.108C173.456 115.108 173.252 115.048 172.988 114.928C172.724 114.784 172.484 114.628 172.268 114.46C172.052 114.268 171.932 114.1 171.908 113.956C171.884 113.764 172.016 113.224 172.304 112.336C172.568 111.424 173 110.188 173.6 108.628C174.2 107.044 174.704 105.82 175.112 104.956C175.52 104.092 175.82 103.576 176.012 103.408C176.108 103.312 176.24 103.264 176.408 103.264C176.672 103.264 176.924 103.384 177.164 103.624C177.404 103.84 177.536 104.104 177.56 104.416C177.56 104.44 176.96 105.856 175.76 108.664C174.584 111.376 174.032 112.996 174.104 113.524C175.16 113.188 176.924 112 179.396 109.96C180.884 108.712 181.952 107.584 182.6 106.576C183.272 105.544 183.608 104.62 183.608 103.804C183.608 103.324 183.488 102.892 183.248 102.508C183.032 102.1 182.624 101.764 182.024 101.5C181.856 101.428 181.772 101.32 181.772 101.176C181.772 100.96 181.904 100.852 182.168 100.852C182.864 100.852 183.464 101.08 183.968 101.536C184.496 101.992 184.76 102.676 184.76 103.588C184.76 104.548 184.352 105.64 183.536 106.864C182.72 108.064 181.556 109.348 180.044 110.716C178.724 111.892 177.524 112.852 176.444 113.596C175.388 114.34 174.44 114.844 173.6 115.108ZM194.196 102.616C193.788 102.616 193.428 102.484 193.116 102.22C192.828 101.956 192.684 101.656 192.684 101.32C192.684 100.648 193.14 100.312 194.052 100.312C194.388 100.312 194.724 100.432 195.06 100.672C195.396 100.888 195.564 101.164 195.564 101.5C195.564 101.788 195.408 102.052 195.096 102.292C194.784 102.508 194.484 102.616 194.196 102.616ZM187.536 115.396C187.008 115.396 186.576 115.228 186.24 114.892C185.88 114.532 185.7 113.908 185.7 113.02C185.7 112.516 185.82 111.94 186.06 111.292C186.276 110.62 186.552 109.948 186.888 109.276C187.248 108.604 187.596 108.004 187.932 107.476C189.276 105.292 190.38 104.188 191.244 104.164C191.46 104.164 191.724 104.26 192.036 104.452C192.348 104.62 192.504 104.812 192.504 105.028C192.504 105.028 191.592 106.204 189.768 108.556C187.968 110.884 187.068 112.54 187.068 113.524C187.068 114.292 187.368 114.676 187.968 114.676C188.352 114.676 188.844 114.52 189.444 114.208C190.068 113.872 190.716 113.452 191.388 112.948C192.06 112.444 192.696 111.904 193.296 111.328C193.92 110.752 194.424 110.224 194.808 109.744C195.048 109.432 195.252 109.216 195.42 109.096C195.612 108.976 195.732 108.916 195.78 108.916C195.876 108.916 195.924 108.988 195.924 109.132C195.924 109.252 195.78 109.492 195.492 109.852C195.228 110.212 194.856 110.632 194.376 111.112C193.8 111.688 193.164 112.312 192.468 112.984C191.772 113.656 191.016 114.232 190.2 114.712C189.384 115.168 188.496 115.396 187.536 115.396ZM201.501 115.072C200.373 115.072 199.533 114.7 198.981 113.956C198.453 113.212 198.021 112.18 197.685 110.86C197.253 111.292 196.953 111.508 196.785 111.508C196.665 111.508 196.605 111.412 196.605 111.22C196.605 111.076 196.665 110.944 196.785 110.824C196.785 110.824 197.085 110.452 197.685 109.708C198.309 108.964 199.353 107.92 200.817 106.576L205.353 102.328C205.977 101.728 206.469 101.272 206.829 100.96C207.213 100.648 207.489 100.492 207.657 100.492C208.425 100.492 208.809 100.78 208.809 101.356C208.809 101.644 208.653 101.98 208.341 102.364C208.101 102.652 207.921 102.88 207.801 103.048C207.705 103.192 207.645 103.276 207.621 103.3C207.189 104.044 206.793 105.376 206.433 107.296C206.169 108.712 205.941 109.876 205.749 110.788C205.557 111.7 205.401 112.36 205.281 112.768C206.289 112.744 207.285 112.432 208.269 111.832C209.253 111.232 210.309 110.248 211.437 108.88C211.485 108.832 211.557 108.76 211.653 108.664C211.749 108.568 211.845 108.52 211.941 108.52C212.085 108.52 212.157 108.58 212.157 108.7C212.157 108.82 212.121 108.94 212.049 109.06C211.977 109.18 211.905 109.288 211.833 109.384C211.089 110.272 210.393 111.004 209.745 111.58C209.097 112.132 208.413 112.576 207.693 112.912C206.973 113.224 206.121 113.488 205.137 113.704L203.985 114.46C203.673 114.676 203.301 114.832 202.869 114.928C202.437 115.024 201.981 115.072 201.501 115.072ZM201.933 113.236C202.485 113.236 202.941 113.104 203.301 112.84C203.565 112.696 203.817 112.3 204.057 111.652C204.321 110.98 204.573 110.152 204.813 109.168C205.005 108.328 205.149 107.512 205.245 106.72C205.365 105.904 205.473 105.124 205.569 104.38L205.713 103.156C205.161 103.564 204.465 104.152 203.625 104.92C202.785 105.688 201.957 106.492 201.141 107.332C200.325 108.172 199.797 108.796 199.557 109.204C199.317 109.588 199.185 109.876 199.161 110.068C199.065 111.028 199.293 111.796 199.845 112.372C200.421 112.948 201.117 113.236 201.933 113.236ZM215.135 115.468C214.367 115.468 213.671 115.228 213.047 114.748C212.423 114.244 212.111 113.584 212.111 112.768C212.111 111.064 213.155 109.12 215.243 106.936C217.379 104.728 219.287 103.624 220.967 103.624C221.519 103.624 221.963 103.78 222.299 104.092C222.659 104.38 222.839 104.74 222.839 105.172C222.839 106.516 221.771 107.836 219.635 109.132C217.739 110.284 216.143 110.86 214.847 110.86C214.655 110.86 214.487 110.836 214.343 110.788C213.983 111.436 213.803 112.12 213.803 112.84C213.803 114.088 214.391 114.712 215.567 114.712C216.767 114.712 218.315 113.908 220.211 112.3C221.675 111.124 222.923 109.876 223.955 108.556C224.171 108.268 224.363 108.124 224.531 108.124C224.675 108.124 224.747 108.196 224.747 108.34C224.747 108.484 224.651 108.688 224.459 108.952C223.787 109.84 223.067 110.656 222.299 111.4C221.531 112.144 220.703 112.828 219.815 113.452C217.967 114.796 216.407 115.468 215.135 115.468ZM215.351 110.068C216.263 110.068 217.451 109.612 218.915 108.7C219.395 108.364 219.863 107.992 220.319 107.584C220.799 107.152 221.183 106.72 221.471 106.288C221.783 105.856 221.939 105.472 221.939 105.136C221.939 104.824 221.687 104.668 221.183 104.668C220.463 104.668 219.455 105.208 218.159 106.288C217.535 106.816 216.935 107.392 216.359 108.016C215.783 108.64 215.291 109.3 214.883 109.996C215.027 110.044 215.183 110.068 215.351 110.068ZM232.889 115.18C231.857 115.18 231.149 114.916 230.765 114.388C230.381 113.836 230.189 113.104 230.189 112.192C230.189 111.184 230.501 109.984 231.125 108.592C231.365 108.04 231.617 107.548 231.881 107.116C232.145 106.66 232.421 106.24 232.709 105.856C232.613 105.88 232.529 105.892 232.457 105.892C232.385 105.892 232.313 105.892 232.241 105.892C231.665 105.892 231.185 105.484 230.801 104.668L228.137 108.124C226.721 109.972 225.857 110.896 225.545 110.896C225.425 110.896 225.365 110.848 225.365 110.752C225.365 110.632 225.425 110.476 225.545 110.284C225.617 110.14 225.761 109.948 225.977 109.708C226.889 108.652 227.729 107.608 228.497 106.576C229.265 105.544 229.901 104.536 230.405 103.552C230.957 101.464 231.653 100.42 232.493 100.42C233.045 100.42 233.321 100.672 233.321 101.176C233.321 101.632 233.021 102.232 232.421 102.976C231.845 103.72 231.557 104.104 231.557 104.128C231.557 104.632 231.929 104.884 232.673 104.884C233.105 104.884 233.585 104.728 234.113 104.416L235.049 103.84C235.097 103.816 235.169 103.804 235.265 103.804C235.553 103.804 235.805 103.924 236.021 104.164C236.237 104.404 236.309 104.62 236.237 104.812L233.753 107.944C232.217 109.912 231.449 111.496 231.449 112.696C231.449 113.776 231.977 114.316 233.033 114.316C233.753 114.316 234.521 114.1 235.337 113.668C236.177 113.236 236.981 112.708 237.749 112.084C238.541 111.436 239.201 110.812 239.729 110.212L240.593 109.204C240.641 109.156 240.701 109.096 240.773 109.024C240.845 108.952 240.905 108.916 240.953 108.916C241.121 108.916 241.205 109 241.205 109.168C241.205 109.216 241.181 109.3 241.133 109.42C241.085 109.54 241.001 109.672 240.881 109.816L239.729 111.112C239.177 111.736 238.493 112.372 237.677 113.02C236.885 113.644 236.057 114.16 235.193 114.568C234.353 114.976 233.585 115.18 232.889 115.18Z" fill="#580F0F"/>
</svg>
